# xmcd
#
# Track frame offsets: 
#        150
#        31356
#        60014
#        96990
#        119814
#        149149
#        181947
#        211642
#        243068
#
# Disc length: 3704 seconds
#
# Revision: 1
# Processed by: cddbd v1.5.2PL0 Copyright (c) Steve Scherf et al.
# Submitted via: ExactAudioCopy v1.0b3
#
DISCID=790e7609
DTITLE=MJR - 刑事ジャズ
DYEAR=2003
DGENRE=Jazz
TTITLE0=ミッション・インポッシブル [スパイ大作戦]
TTITLE1=Bad City [探偵物語]
TTITLE2=濱マイクのテーマ [私立探偵　濱マイク]
TTITLE3=刑事コロンボ [刑事コロンボ]
TTITLE4=キーハンター [キイハンター]
TTITLE5=傷だらけの天使 [傷だらけの天使]
TTITLE6=男たちのメロディ [俺たちは天使だ]
TTITLE7=太陽にほえろ！ [太陽にほえろ！]
TTITLE8=シャレード [シャレード]
EXTD=YEAR: 2003
EXTT0=
EXTT1=
EXTT2=
EXTT3=
EXTT4=
EXTT5=
EXTT6=
EXTT7=
EXTT8=
PLAYORDER=
